<svg xmlns="http://www.w3.org/2000/svg" preserveAspectRatio="xMidYMid meet" id="achacffb"
	viewBox="47 0 156.25 156.16">
	<defs id="SvgjsDefs1001"></defs>
	<g id="SvgjsG1007" featurekey="symbolGroupContainer"
		transform="matrix(3.055936098098755,0,0,3.055936098098755,47,-0.061118718912935306)"
		fill="#47978F">
		<path xmlns="http://www.w3.org/2000/svg"
			d="M34.56 47.26H16.5L3.73 34.51V16.43L16.5 3.66h18.06l12.77 12.77v18.08zm-17.57-1.19h17.08L46.14 34V16.93L34.07 4.86H17L4.93 16.93V34z"></path>
		<path xmlns="http://www.w3.org/2000/svg"
			d="M25.57 51.12L7.49 43.63 0 25.51l7.49-18L25.57.02l18.1 7.49 7.46 18-7.46 18.13zm-17.16-8.4l17.16 7.11 17.16-7.11 7.11-17.21-7.11-17.16-17.16-7.11L8.41 8.35 1.29 25.51z"></path>
	</g>
	<g id="SvgjsG1008" featurekey="symbolFeature-0"
		transform="matrix(2.17391300201416,0,0,2.17391300201416,72.82608695652173,26.056521830351457)"
		fill="#47978F">
		<g xmlns="http://www.w3.org/2000/svg">
			<path fill="none" stroke="#47978F" stroke-width="2" stroke-linecap="round"
				stroke-linejoin="round" stroke-miterlimit="10"
				d="   M8.694,41.018l-4.256-8.126l3.285-0.449l35.408-2.646c0,0-5.934,3.609-7.547,11.221"></path>
			<polyline fill="none" stroke="#47978F" stroke-width="2" stroke-linecap="round"
				stroke-linejoin="round" stroke-miterlimit="10"
				points="   16.3,31.27 16.3,26.185 7.789,26.185 7.789,32.342  "></polyline>
			<polyline fill="none" stroke="#47978F" stroke-width="2" stroke-linecap="round"
				stroke-linejoin="round" stroke-miterlimit="10"
				points="   14.366,24.65 14.366,18.933 35.053,18.933 35.053,30.663  "></polyline>
			<line fill="none" stroke="#47978F" stroke-width="2" stroke-linecap="round"
				stroke-linejoin="round" stroke-miterlimit="10" x1="29.145" y1="23.888" x2="29.145"
				y2="25.709"></line>
			<line fill="none" stroke="#47978F" stroke-width="2" stroke-linecap="round"
				stroke-linejoin="round" stroke-miterlimit="10" x1="22.086" y1="23.888" x2="22.086"
				y2="25.709"></line>
			<path fill="none" stroke="#47978F" stroke-width="2" stroke-linecap="round"
				stroke-linejoin="round" stroke-miterlimit="10"
				d="   M1,41.208c2.39,0.833,4.486,1.372,7.095,1.289c2.479-0.077,3.396-1.22,5.585-1.987c3.492-1.225,8.266-0.367,11.554,0.69   c2.074,0.669,3.623,1.36,6.061,1.093c1.852-0.203,3.426-1.24,5.172-1.515c3.932-0.62,6.844,1.479,10.533,1.503"></path>
			<line fill="none" stroke="#47978F" stroke-width="2" stroke-linecap="round"
				stroke-linejoin="round" stroke-miterlimit="10" x1="21.801" y1="18.933" x2="21.801"
				y2="5.494"></line>
		</g>
	</g>
</svg>